<svg xmlns="http://www.w3.org/2000/svg" xmlns:xlink="http://www.w3.org/1999/xlink" version="1.1" width="442" height="442" viewBox="0 0 1000 1000" xml:space="preserve">
<desc>Created with Fabric.js 3.5.0</desc>
<defs>
</defs>
<rect x="0" y="0" width="100%" height="100%" fill="rgba(0,0,0,0)"></rect>
<g transform="matrix(2.2858 0 0 2.2858 499.0145 499.163)" id="639142">
<path style="stroke: none; stroke-width: 1; stroke-dasharray: none; stroke-linecap: butt; stroke-dashoffset: 0; stroke-linejoin: miter; stroke-miterlimit: 4; is-custom-font: none; font-file-url: none; fill: rgb(156,105,226); fill-rule: nonzero; opacity: 0.1;" vector-effect="non-scaling-stroke" transform=" translate(-216.5324, -179)" d="M 44.0052 41.7354 C 48.0425 17.6465 68.8926 0 93.3175 0 H 383 C 410.614 0 433 22.3858 433 50 V 308 C 433 335.614 410.614 358 383 358 H 50.0772 C 19.1619 358 -4.34505 330.225 0.76502 299.735 L 44.0052 41.7354 Z" stroke-linecap="round"></path>
</g>
<g transform="matrix(2.2858 0 0 2.2858 695.304 706.8224)" id="680053">
<path style="stroke: rgb(255,255,255); stroke-width: 1.5; stroke-dasharray: none; stroke-linecap: butt; stroke-dashoffset: 0; stroke-linejoin: miter; stroke-miterlimit: 4; is-custom-font: none; font-file-url: none; fill: none; fill-rule: nonzero; opacity: 1;" vector-effect="non-scaling-stroke" transform=" translate(-105.3964, -75.2631)" d="M 11.3727 64.3406 C -16.6732 32.5297 16.4425 1.8134 74.7278 0.984771 C 190.606 8.6209 216.755 111.245 207.997 134.254 C 199.24 157.263 173.163 157.891 134.526 111.019 C 95.889 64.1459 46.43 104.104 11.3727 64.3406 Z" stroke-linecap="round"></path>
</g>
</svg>